<?xml version="1.0" encoding="utf-8"?>
<!-- Generator: Adobe Illustrator 26.2.1, SVG Export Plug-In . SVG Version: 6.00 Build 0)  -->
<svg version="1.1" id="Layer_1" xmlns="http://www.w3.org/2000/svg" xmlns:xlink="http://www.w3.org/1999/xlink" x="0px" y="0px"
	 viewBox="0 0 997.6 892.9" style="enable-background:new 0 0 997.6 892.9;" xml:space="preserve">
<style type="text/css">
	.st0{fill:#418FCD;}
	.st1{fill:none;stroke:#666666;stroke-miterlimit:10;}
</style>
<g>
	<rect x="0" y="0" class="st0" width="997.6" height="836.8"/>
	<g>
		<polygon class="st0" points="69.7,892.9 139.3,836.8 0,836.8 		"/>
		<polygon class="st0" points="212.7,892.9 282.4,836.8 143,836.8 		"/>
		<polygon class="st0" points="355.8,892.9 425.4,836.8 286.1,836.8 		"/>
		<polygon class="st0" points="498.8,892.9 568.5,836.8 429.1,836.8 		"/>
		<polygon class="st0" points="641.8,892.9 711.5,836.8 572.2,836.8 		"/>
		<polygon class="st0" points="784.9,892.9 854.6,836.8 715.2,836.8 		"/>
		<polygon class="st0" points="927.9,892.9 997.6,836.8 858.2,836.8 		"/>
	</g>
	<g>
		<line class="st1" x1="0" y1="169.8" x2="997.6" y2="169.8"/>
		<line class="st1" x1="0" y1="263.2" x2="997.6" y2="263.2"/>
		<line class="st1" x1="0" y1="356.7" x2="997.6" y2="356.7"/>
		<line class="st1" x1="0" y1="450.1" x2="997.6" y2="450.1"/>
		<line class="st1" x1="0" y1="543.5" x2="997.6" y2="543.5"/>
		<line class="st1" x1="0" y1="637" x2="997.6" y2="637"/>
		<line class="st1" x1="0" y1="730.4" x2="997.6" y2="730.4"/>
	</g>
	<rect y="768.2" class="st0" width="997.6" height="68.8"/>
</g>
</svg>
