<svg aria-hidden="true" style="position: absolute; width: 0; height: 0; overflow: hidden;" version="1.1" xmlns="http://www.w3.org/2000/svg" xmlns:xlink="http://www.w3.org/1999/xlink">
<defs>
<symbol id="cog" viewBox="0 0 32 32">
<path d="M26.7 12.754c-0.004 0.218-0.087 0.388-0.246 0.523-0.415 0.351-0.83 0.701-1.245 1.052-0.282 0.238-0.568 0.471-0.842 0.717-0.55 0.493-0.557 1.398-0.012 1.895 0.325 0.296 0.668 0.572 1.003 0.856 0.376 0.319 0.755 0.632 1.125 0.957 0.207 0.182 0.268 0.422 0.182 0.685-0.396 1.217-0.984 2.334-1.768 3.345-0.178 0.23-0.367 0.451-0.558 0.669-0.201 0.232-0.471 0.294-0.761 0.191-0.566-0.202-1.132-0.404-1.699-0.605-0.285-0.102-0.57-0.208-0.858-0.301-0.677-0.218-1.424 0.164-1.636 0.844-0.063 0.204-0.093 0.418-0.132 0.628-0.134 0.721-0.265 1.443-0.397 2.164-0.052 0.286-0.252 0.487-0.539 0.545-0.588 0.12-1.182 0.197-1.782 0.225-0.648 0.030-1.293 0.010-1.935-0.077-0.306-0.041-0.61-0.095-0.914-0.149-0.289-0.052-0.488-0.252-0.542-0.541-0.119-0.637-0.234-1.275-0.35-1.913-0.045-0.246-0.084-0.494-0.137-0.739-0.173-0.796-0.978-1.24-1.748-0.968-0.83 0.294-1.659 0.59-2.488 0.886-0.289 0.103-0.556 0.036-0.762-0.192-0.628-0.697-1.162-1.46-1.599-2.291-0.291-0.552-0.534-1.125-0.724-1.72-0.085-0.268-0.026-0.509 0.186-0.693 0.419-0.365 0.847-0.72 1.272-1.079 0.28-0.237 0.565-0.468 0.838-0.714 0.554-0.497 0.559-1.404 0.008-1.903-0.326-0.295-0.668-0.572-1.004-0.856-0.372-0.316-0.749-0.627-1.117-0.95-0.208-0.182-0.269-0.422-0.184-0.684 0.373-1.15 0.918-2.213 1.643-3.18 0.219-0.292 0.456-0.57 0.694-0.847 0.193-0.223 0.445-0.285 0.721-0.189 0.669 0.232 1.334 0.474 2.002 0.71 0.191 0.068 0.381 0.141 0.576 0.202 0.76 0.236 1.541-0.23 1.692-1.012 0.131-0.679 0.25-1.361 0.374-2.041 0.036-0.196 0.070-0.393 0.109-0.589 0.056-0.285 0.254-0.479 0.54-0.538 0.578-0.117 1.16-0.194 1.749-0.223 0.691-0.034 1.38-0.010 2.065 0.087 0.273 0.038 0.545 0.087 0.816 0.137 0.302 0.056 0.491 0.266 0.549 0.586 0.147 0.808 0.294 1.615 0.445 2.422 0.028 0.149 0.061 0.301 0.116 0.44 0.196 0.49 0.723 0.816 1.251 0.792 0.15-0.007 0.294-0.037 0.436-0.088 0.824-0.294 1.649-0.588 2.473-0.881 0.284-0.101 0.55-0.031 0.751 0.193 0.687 0.763 1.261 1.604 1.718 2.524 0.239 0.483 0.442 0.98 0.609 1.491 0.012 0.035 0.020 0.070 0.026 0.106 0.008 0.033 0.008 0.066 0.010 0.089zM16.005 12.742c-1.8-0.001-3.261 1.455-3.263 3.249-0.002 1.798 1.455 3.264 3.242 3.265 1.814 0.001 3.273-1.452 3.274-3.261 0.001-1.791-1.461-3.253-3.254-3.254z"></path>
</symbol>
</defs>
</svg>