<svg aria-hidden="true" style="position: absolute; width: 0; height: 0; overflow: hidden;" version="1.1" xmlns="http://www.w3.org/2000/svg" xmlns:xlink="http://www.w3.org/1999/xlink">
<defs>

<symbol id="download-button" viewBox="0 0 32 32">
<path fill="#ecd05e" style="fill: var(--color1, #ecd05e)" d="M16 27.066c3.45 0 6.899 0 10.349 0 0.224 0 0.448 0 0.666-0.032 0.666-0.102 0.966-0.429 1.018-1.101 0.019-0.269 0.032-0.538 0.032-0.813 0-1.133-0.013-2.259 0.006-3.392 0.006-0.691 0.275-1.274 0.851-1.677 1.043-0.723 2.483-0.256 2.918 0.941 0.096 0.269 0.147 0.55 0.154 0.845 0 1.312 0.013 2.624-0.006 3.93-0.019 1.21-0.339 2.33-1.088 3.296-0.794 1.018-1.856 1.594-3.11 1.83-0.326 0.064-0.659 0.096-0.998 0.096-2.688 0.026-5.37 0.038-8.058 0.013-1.619-0.013-3.238-0.026-4.858-0.006-2.208 0.019-4.416 0.013-6.624 0.006-0.755 0-1.51 0.019-2.259-0.026-1.747-0.096-3.174-0.813-4.154-2.291-0.544-0.826-0.819-1.747-0.826-2.739-0.013-1.395-0.019-2.79 0-4.186 0.013-0.813 0.358-1.472 1.114-1.85 1.082-0.544 2.368 0.032 2.701 1.197 0.070 0.243 0.102 0.486 0.102 0.736 0 1.248 0 2.496 0 3.738 0 0.237 0.019 0.467 0.090 0.691 0.109 0.371 0.358 0.602 0.73 0.704 0.243 0.070 0.493 0.077 0.742 0.077 3.507 0.006 7.008 0.006 10.509 0.013 0 0 0 0 0 0z"></path>
<path fill="#ecd05e" style="fill: var(--color1, #ecd05e)" d="M17.978 16.57c0.166-0.115 0.256-0.25 0.365-0.365 0.499-0.525 0.998-1.056 1.498-1.587 0.877-0.934 1.76-1.869 2.637-2.803 0.243-0.256 0.531-0.454 0.87-0.576 0.762-0.269 1.523-0.064 2.086 0.55 0.512 0.563 0.634 1.395 0.307 2.093-0.122 0.256-0.288 0.48-0.48 0.691-0.794 0.851-1.594 1.709-2.387 2.56-1.216 1.306-2.432 2.605-3.648 3.91-0.57 0.608-1.139 1.216-1.709 1.824-0.25 0.262-0.538 0.467-0.877 0.595-0.749 0.275-1.408 0.102-1.965-0.435-0.474-0.454-0.915-0.947-1.363-1.427-0.57-0.608-1.139-1.216-1.709-1.824-1.222-1.318-2.451-2.63-3.674-3.949-0.429-0.461-0.864-0.922-1.286-1.389-0.947-1.037-0.627-2.586 0.646-3.162 0.698-0.314 1.568-0.141 2.17 0.467 0.557 0.563 1.094 1.152 1.638 1.734 0.518 0.557 1.030 1.114 1.549 1.67 0.307 0.333 0.614 0.659 0.922 0.986 0.141 0.154 0.301 0.282 0.474 0.416 0.032-0.077 0.019-0.147 0.019-0.211 0-4.41 0-8.819 0-13.229 0-0.435 0.083-0.858 0.307-1.235 0.467-0.774 1.453-1.101 2.342-0.762 0.787 0.301 1.165 0.909 1.242 1.728 0.032 0.307 0.026 0.614 0.026 0.922 0 4.179 0 8.365 0 12.544 0 0.083 0 0.154 0 0.262z"></path>
</symbol>

<symbol id="cog" viewBox="0 0 32 32">
<path d="M26.7 12.754c-0.004 0.218-0.087 0.388-0.246 0.523-0.415 0.351-0.83 0.701-1.245 1.052-0.282 0.238-0.568 0.471-0.842 0.717-0.55 0.493-0.557 1.398-0.012 1.895 0.325 0.296 0.668 0.572 1.003 0.856 0.376 0.319 0.755 0.632 1.125 0.957 0.207 0.182 0.268 0.422 0.182 0.685-0.396 1.217-0.984 2.334-1.768 3.345-0.178 0.23-0.367 0.451-0.558 0.669-0.201 0.232-0.471 0.294-0.761 0.191-0.566-0.202-1.132-0.404-1.699-0.605-0.285-0.102-0.57-0.208-0.858-0.301-0.677-0.218-1.424 0.164-1.636 0.844-0.063 0.204-0.093 0.418-0.132 0.628-0.134 0.721-0.265 1.443-0.397 2.164-0.052 0.286-0.252 0.487-0.539 0.545-0.588 0.12-1.182 0.197-1.782 0.225-0.648 0.030-1.293 0.010-1.935-0.077-0.306-0.041-0.61-0.095-0.914-0.149-0.289-0.052-0.488-0.252-0.542-0.541-0.119-0.637-0.234-1.275-0.35-1.913-0.045-0.246-0.084-0.494-0.137-0.739-0.173-0.796-0.978-1.24-1.748-0.968-0.83 0.294-1.659 0.59-2.488 0.886-0.289 0.103-0.556 0.036-0.762-0.192-0.628-0.697-1.162-1.46-1.599-2.291-0.291-0.552-0.534-1.125-0.724-1.72-0.085-0.268-0.026-0.509 0.186-0.693 0.419-0.365 0.847-0.72 1.272-1.079 0.28-0.237 0.565-0.468 0.838-0.714 0.554-0.497 0.559-1.404 0.008-1.903-0.326-0.295-0.668-0.572-1.004-0.856-0.372-0.316-0.749-0.627-1.117-0.95-0.208-0.182-0.269-0.422-0.184-0.684 0.373-1.15 0.918-2.213 1.643-3.18 0.219-0.292 0.456-0.57 0.694-0.847 0.193-0.223 0.445-0.285 0.721-0.189 0.669 0.232 1.334 0.474 2.002 0.71 0.191 0.068 0.381 0.141 0.576 0.202 0.76 0.236 1.541-0.23 1.692-1.012 0.131-0.679 0.25-1.361 0.374-2.041 0.036-0.196 0.070-0.393 0.109-0.589 0.056-0.285 0.254-0.479 0.54-0.538 0.578-0.117 1.16-0.194 1.749-0.223 0.691-0.034 1.38-0.010 2.065 0.087 0.273 0.038 0.545 0.087 0.816 0.137 0.302 0.056 0.491 0.266 0.549 0.586 0.147 0.808 0.294 1.615 0.445 2.422 0.028 0.149 0.061 0.301 0.116 0.44 0.196 0.49 0.723 0.816 1.251 0.792 0.15-0.007 0.294-0.037 0.436-0.088 0.824-0.294 1.649-0.588 2.473-0.881 0.284-0.101 0.55-0.031 0.751 0.193 0.687 0.763 1.261 1.604 1.718 2.524 0.239 0.483 0.442 0.98 0.609 1.491 0.012 0.035 0.020 0.070 0.026 0.106 0.008 0.033 0.008 0.066 0.010 0.089zM16.005 12.742c-1.8-0.001-3.261 1.455-3.263 3.249-0.002 1.798 1.455 3.264 3.242 3.265 1.814 0.001 3.273-1.452 3.274-3.261 0.001-1.791-1.461-3.253-3.254-3.254z"></path>
</symbol>

</defs>
</svg>