<?xml version="1.0" encoding="utf-8"?>
<!-- Generator: Adobe Illustrator 26.2.1, SVG Export Plug-In . SVG Version: 6.00 Build 0)  -->
<svg version="1.1" id="Layer_1" xmlns="http://www.w3.org/2000/svg" xmlns:xlink="http://www.w3.org/1999/xlink" x="0px" y="0px"
	 viewBox="0 0 500 500" style="enable-background:new 0 0 500 500;" xml:space="preserve">
<style type="text/css">
	.st0{fill:#568EC9;}
	.st1{fill:#418FCD;}
	.st2{fill:none;stroke:#666666;stroke-miterlimit:10;}
	.st3{fill:#FFFAF2;}
	.st4{fill:#F5F5F5;}
</style>
<circle class="st0" cx="250" cy="250" r="250"/>
<g>
	<rect x="775.7" y="-124.2" class="st0" width="997.6" height="836.8"/>
	<g>
		<polygon class="st1" points="845.4,768.7 915,712.6 775.7,712.6 		"/>
		<polygon class="st1" points="988.4,768.7 1058.1,712.6 918.7,712.6 		"/>
		<polygon class="st1" points="1131.5,768.7 1201.1,712.6 1061.8,712.6 		"/>
		<polygon class="st1" points="1274.5,768.7 1344.2,712.6 1204.8,712.6 		"/>
		<polygon class="st1" points="1417.5,768.7 1487.2,712.6 1347.9,712.6 		"/>
		<polygon class="st1" points="1560.6,768.7 1630.3,712.6 1490.9,712.6 		"/>
		<polygon class="st1" points="1703.6,768.7 1773.3,712.6 1633.9,712.6 		"/>
	</g>
	<g>
		<line class="st2" x1="775.7" y1="45.6" x2="1773.3" y2="45.6"/>
		<line class="st2" x1="775.7" y1="139" x2="1773.3" y2="139"/>
		<line class="st2" x1="775.7" y1="232.5" x2="1773.3" y2="232.5"/>
		<line class="st2" x1="775.7" y1="325.9" x2="1773.3" y2="325.9"/>
		<line class="st2" x1="775.7" y1="419.4" x2="1773.3" y2="419.4"/>
		<line class="st2" x1="775.7" y1="512.8" x2="1773.3" y2="512.8"/>
		<line class="st2" x1="775.7" y1="606.2" x2="1773.3" y2="606.2"/>
	</g>
	<rect x="775.7" y="644" class="st1" width="997.6" height="68.8"/>
</g>
<g>
	<g>
		<path class="st3" d="M-1106,644c-2.1-0.6-4.3-1-6.3-2c-7.1-3.4-11.3-10.6-10-17.6c1.4-7.7,8.2-14.2,16-14.4
			c10.5-0.3,21-0.2,31.5-0.2c4,0,8,0,12,0c0.3-1.9,0.3-3.5,0-5.3c-4.9-0.2-9.8-0.4-14.7-1.2c-33-5.9-57.9-22.5-71.9-53.7
			c-4-8.9-5.5-18.4-6.1-28.2c-0.6-11,8.2-17.8,16.4-18.7c10.4-1.2,21,5.8,21.2,17.3c0,2.9,0.3,5.8,0.9,8.6c4,18,15.1,29.8,31.6,37.1
			c7.4,3.3,15.2,4.6,23.2,4.6c13.7,0,27.5,0.4,41.2-0.2c22.8-1.1,43.4-17,49.4-37.9c1.1-3.9,1.8-7.8,1.7-11.8
			c-0.3-11.4,10.7-19.1,21.4-17.6c10.1,1.4,16.4,8.6,16.1,18.7c-0.6,20.6-8.3,38.3-22.4,53.2c-16,17-36,26.2-58.9,29.1
			c-3.7,0.5-7.4,0.6-11.2,0.9c-0.5,1.6-0.1,3.2-0.2,4.8c1,0.6,1.9,0.4,2.8,0.4c13.6,0.1,27.2-0.2,40.8,0.3
			c11.5,0.4,19.4,12.7,15,22.9c-2.6,6.1-7.6,9.3-13.9,10.6c-0.5,0.1-1,0-1.4,0.4C-1023.1,644-1064.6,644-1106,644z"/>
		<path class="st3" d="M-1113.1,433.8c0-18.5-0.8-37.1,0.2-55.5c1.8-32.5,26.1-60,58.2-65c33.7-5.3,65.6,14.7,76.2,47.1
			c2.5,7.7,3.9,15.5,3.9,23.6c0,34.6,0.2,69.2-0.1,103.8c-0.3,30.9-23.8,59.7-53.2,66.5c-39.3,9.1-75.2-16.3-83.6-53.3
			c-1.3-5.8-1.8-11.6-1.8-17.5C-1113.1,467-1113.2,450.4-1113.1,433.8C-1113.1,433.8-1113.1,433.8-1113.1,433.8z M-1080.1,433.8
			C-1080.1,433.8-1080.1,433.8-1080.1,433.8c0.1,16.5,0.1,33,0.1,49.5c0,2.7,0.1,5.4,0.5,8c3.4,20.6,23.2,34.3,43.5,29.9
			c16.3-3.5,28.3-18.7,28.4-36.5c0.1-33.5,0-67,0.1-100.5c0-23.7-20.1-40.3-40.8-37.7c-16.7,2.1-31.7,18.5-31.7,35.6
			C-1080.1,399.4-1080.1,416.6-1080.1,433.8z"/>
	</g>
</g>
<g>
	<g>
		<path class="st4" d="M-184.6,1429.8c-4-1.3-7.9-2.8-10.8-6.1c-7.4-8.4-5.3-20.4,4.5-26c3.8-2.1,7.9-2.8,12.1-2.8
			c12.2,0,24.4,0,36.5,0c2.8,0,3.7-1.3,2.9-3.9c-0.3-1-1.1-0.9-1.8-1c-13.2-0.3-26-3-38.1-8.4c-26.3-11.8-44.4-31-51.8-59.3
			c-1.6-5.9-2.1-12-2.2-18.1c-0.2-7.9,5.8-15.1,14.1-17.2c9.5-2.5,19.5,2.1,23.2,10.6c0.9,2.1,1.3,4.4,1.4,6.7
			c0.6,18.8,9.7,32.6,25.4,42.3c9.1,5.6,19.1,8.2,29.8,8.3c13.4,0.1,26.9,0.3,40.3-0.1c15.5-0.4,29-6.1,39.8-17.2
			c9-9.2,13.9-20.3,14.1-33.4c0.1-9.6,8.1-17.5,17.7-17.9c7.3-0.3,13.3,2.1,17.8,8c2.3,3,3.2,6.6,3.2,10.3c-0.2,10-2,19.8-6,29
			c-10.3,24.1-28.3,40.2-52.5,49.6c-10.7,4.2-21.9,6.4-33.4,6.6c-1.8,0-2.2,0.8-2.2,2.4c0,1.7,0.3,2.6,2.3,2.6
			c12.5-0.1,24.9,0,37.4,0c4.6,0,9.1,0.8,13,3.5c5.5,3.8,8.5,9,7.9,15.7c-0.6,6.5-4.5,11-10.2,13.9c-1.7,0.9-3.5,1.3-5.3,1.8
			C-98.6,1429.8-141.6,1429.8-184.6,1429.8z"/>
		<path class="st4" d="M-190.5,1216.6c0-17.4-0.3-34.9,0.1-52.3c0.7-35,26-65.3,61-70.1c20.7-2.9,39.3,2.8,55.1,16.6
			c14.2,12.4,22.1,28.3,24.3,47c0.5,4,0.7,7.9,0.7,11.9c0,32.5,0,65.1,0,97.6c0,14.7-3.6,28.4-11.7,40.8
			c-11.7,18-28.1,29.1-49.4,32.2c-31.4,4.5-61.9-13.3-74.2-43c-3.9-9.5-5.8-19.4-5.9-29.7C-190.5,1250.7-190.5,1233.7-190.5,1216.6z
			"/>
	</g>
</g>
<g>
	<g>
		<path class="st3" d="M188.6,409.7c-3.8-1.2-7.5-2.7-10.3-5.8c-7-8-5-19.4,4.3-24.6c3.6-2,7.5-2.7,11.5-2.7c11.6,0,23.1,0,34.7,0
			c2.6,0,3.5-1.2,2.7-3.7c-0.3-1-1-0.9-1.7-0.9c-12.6-0.3-24.7-2.8-36.1-8c-25-11.2-42.1-29.4-49.2-56.3c-1.5-5.6-2-11.4-2.1-17.2
			c-0.1-7.5,5.5-14.3,13.4-16.4c9-2.3,18.5,2,22,10.1c0.9,2,1.3,4.2,1.3,6.4c0.5,17.9,9.2,30.9,24.1,40.2c8.6,5.3,18.2,7.8,28.3,7.9
			c12.8,0.1,25.5,0.3,38.3-0.1c14.7-0.4,27.5-5.8,37.8-16.3c8.6-8.7,13.2-19.3,13.4-31.7c0.1-9.1,7.7-16.6,16.8-17
			c6.9-0.3,12.6,2,16.9,7.6c2.2,2.9,3.1,6.2,3,9.7c-0.2,9.5-1.9,18.8-5.7,27.6c-9.8,22.9-26.8,38.2-49.8,47.1
			c-10.2,4-20.8,6.1-31.7,6.3c-1.8,0-2.1,0.7-2.1,2.3c0,1.6,0.3,2.5,2.2,2.5c11.8-0.1,23.7,0,35.5,0c4.4,0,8.6,0.7,12.3,3.3
			c5.2,3.6,8.1,8.5,7.5,14.9c-0.6,6.2-4.2,10.4-9.7,13.2c-1.6,0.8-3.4,1.2-5.1,1.7C270.2,409.7,229.4,409.7,188.6,409.7z"/>
		<path class="st3" d="M183,207.3c0-16.6-0.3-33.1,0.1-49.6c0.7-33.3,24.7-62,58-66.6c19.7-2.7,37.3,2.7,52.3,15.8
			c13.5,11.8,21,26.8,23.1,44.6c0.4,3.8,0.7,7.5,0.7,11.3c0,30.9,0,61.8,0,92.7c0,13.9-3.4,27-11.1,38.7
			c-11.1,17.1-26.7,27.6-46.9,30.5c-29.9,4.3-58.8-12.7-70.5-40.8c-3.7-9-5.5-18.4-5.6-28.2C182.9,239.6,183,223.4,183,207.3z"/>
	</g>
</g>
</svg>
